<svg width="21" height="21" viewBox="0 0 21 21" fill="none" xmlns="http://www.w3.org/2000/svg">
<path d="M20.125 10.9998C20.1274 9.36014 19.7267 7.74503 18.958 6.29672C18.1893 4.84841 17.0762 3.61133 15.7169 2.69445C14.3575 1.77757 12.7936 1.20902 11.1628 1.03886C9.53195 0.868701 7.88431 1.10216 6.36497 1.71868C4.84562 2.3352 3.50119 3.31586 2.45007 4.5743C1.39895 5.83273 0.673397 7.33032 0.337316 8.93517C0.00123513 10.54 0.064936 12.2029 0.522809 13.7773C0.980681 15.3518 1.81868 16.7895 2.96299 17.9638L2.90599 18.0148L3.80599 18.7498C4.03899 18.9398 4.28199 19.1178 4.53099 19.2858C4.54999 19.2988 4.57099 19.3098 4.59099 19.3228C4.81999 19.4748 5.05399 19.6178 5.29099 19.7498C5.40199 19.8118 5.51699 19.8648 5.62999 19.9218C5.78299 19.9988 5.92999 20.0758 6.09099 20.1448C6.25199 20.2138 6.37699 20.2628 6.52199 20.3188C6.66699 20.3748 6.79399 20.4188 6.93199 20.4688C7.08499 20.5208 7.23899 20.5688 7.39599 20.6128C7.53799 20.6528 7.68099 20.6888 7.82499 20.7238C7.96899 20.7588 8.12499 20.7938 8.27999 20.8238C8.45299 20.8558 8.62799 20.8798 8.80299 20.9038C8.93099 20.9208 9.05599 20.9418 9.18499 20.9538C9.49599 20.9828 9.80799 21.0008 10.121 21.0008C10.434 21.0008 10.746 20.9828 11.057 20.9538C11.186 20.9418 11.311 20.9208 11.439 20.9038C11.614 20.8798 11.789 20.8558 11.962 20.8238C12.115 20.7948 12.262 20.7598 12.417 20.7238C12.572 20.6878 12.704 20.6528 12.846 20.6128C13.003 20.5678 13.157 20.5208 13.31 20.4688C13.448 20.4228 13.584 20.3688 13.72 20.3188C13.856 20.2688 14.01 20.2068 14.152 20.1438C14.294 20.0808 14.459 19.9988 14.611 19.9228C14.725 19.8648 14.84 19.8118 14.951 19.7498C15.19 19.6178 15.424 19.4748 15.651 19.3228C15.671 19.3098 15.692 19.2988 15.711 19.2858C15.96 19.1178 16.203 18.9398 16.436 18.7498L17.336 18.0148L17.279 17.9638C19.1013 16.1036 20.1229 13.6039 20.125 10.9998ZM10.125 2.99981C11.7073 3.00113 13.2537 3.47165 14.5685 4.35185C15.8834 5.23206 16.9078 6.48241 17.512 7.9448C18.1162 9.40718 18.2733 11.0159 17.9632 12.5675C17.6531 14.1191 16.8899 15.544 15.77 16.6618C14.1138 15.5198 12.1358 14.9374 10.125 14.9998C8.1142 14.9374 6.13617 15.5198 4.47999 16.6618C3.36012 15.544 2.59688 14.1191 2.2868 12.5675C1.97673 11.0159 2.13374 9.40718 2.73798 7.9448C3.34222 6.48241 4.36656 5.23206 5.68144 4.35185C6.99632 3.47165 8.54269 3.00113 10.125 2.99981ZM13.994 17.9998C13.7352 18.1448 13.4681 18.2744 13.194 18.3878C13.142 18.4098 13.087 18.4258 13.035 18.4458C12.7668 18.5508 12.4931 18.6409 12.215 18.7158L12.128 18.7378C10.8117 19.0678 9.43429 19.0678 8.11799 18.7378L8.03099 18.7158C7.75292 18.6409 7.47917 18.5508 7.21099 18.4458C7.15899 18.4258 7.10399 18.4098 7.05199 18.3878C6.77791 18.2744 6.51078 18.1448 6.25199 17.9998C6.22399 17.9838 6.19699 17.9648 6.16799 17.9488C7.38036 17.2894 8.74542 16.962 10.125 16.9998C11.5029 16.9618 12.8665 17.2881 14.078 17.9458C14.049 17.9618 14.025 17.9808 13.994 17.9998Z" fill="#8A8A8E"/>
<path d="M10.125 14C11.015 14 11.885 13.7361 12.6251 13.2416C13.3651 12.7471 13.9419 12.0443 14.2825 11.2221C14.6231 10.3998 14.7122 9.49501 14.5385 8.6221C14.3649 7.74918 13.9363 6.94736 13.307 6.31802C12.6776 5.68868 11.8758 5.2601 11.0029 5.08647C10.13 4.91283 9.22519 5.00195 8.40292 5.34254C7.58066 5.68314 6.87785 6.25991 6.38339 6.99994C5.88892 7.73996 5.625 8.60999 5.625 9.5C5.62632 10.6931 6.10085 11.8369 6.94448 12.6805C7.78811 13.5241 8.93193 13.9987 10.125 14ZM10.125 7C10.6195 7 11.1028 7.14662 11.5139 7.42133C11.925 7.69603 12.2455 8.08648 12.4347 8.54329C12.6239 9.00011 12.6734 9.50278 12.577 9.98773C12.4805 10.4727 12.2424 10.9181 11.8928 11.2678C11.5431 11.6174 11.0977 11.8555 10.6127 11.952C10.1278 12.0484 9.62511 11.9989 9.16829 11.8097C8.71148 11.6205 8.32103 11.3001 8.04633 10.8889C7.77162 10.4778 7.625 9.99446 7.625 9.5C7.625 8.83696 7.88839 8.20108 8.35723 7.73223C8.82607 7.26339 9.46196 7 10.125 7Z" fill="#8A8A8E"/>
</svg>
